<svg xmlns="http://www.w3.org/2000/svg" viewBox="0 0 250 250"><defs><style>.cls-1{fill:none;stroke:#000;stroke-miterlimit:10;stroke-width:4px;}</style></defs><g id="noir"><path class="cls-1" d="M126.22,224h-1.5A100,100,0,1,1,225,124c0,52.83-36.94,92.7-85.1,99.9-.56.08-1.12-.84-1.68-.77"/><path class="cls-1" d="M124.72,226V176s-27.27-13.63-27.27-31.82V98.73"/><path class="cls-1" d="M98.12,97.57a2.52,2.52,0,0,1-1.67,0c-2.41-2.48-16.52-18.5,0-38.06a.46.46,0,0,1,.72,0C99.55,62.52,113.45,80.67,98.12,97.57Z"/><path class="cls-1" d="M139.9,225.14v-50s27.28-13.64,27.28-31.82V97.87"/><line class="cls-1" x1="122.72" y1="100.33" x2="122.72" y2="145.79"/><line class="cls-1" x1="140.9" y1="100.14" x2="140.9" y2="145.59"/><path class="cls-1" d="M48.25,89.74c3.62-1.14,25.13-6.9,35.61,13.37a.46.46,0,0,1-.21.64c-3.17,1.39-23.1,9-35.65-13.34A.46.46,0,0,1,48.25,89.74Z"/></g></svg>