<svg id="Calque_1" data-name="Calque 1" xmlns="http://www.w3.org/2000/svg" viewBox="0 0 198 36"><defs><style>.cls-1,.cls-2{fill:none;}.cls-2,.cls-3{stroke:#000;stroke-miterlimit:10;stroke-width:0.5px;}</style></defs><path class="cls-1" d="M67.56,27.73A4.16,4.16,0,0,0,70.14,27a2.37,2.37,0,0,0,.94-2,2.58,2.58,0,0,0-.35-1.39,3,3,0,0,0-1.22-1,16,16,0,0,0-2.49-1l-.42-.14-4,4.51a9.39,9.39,0,0,0,2,1.16A7.76,7.76,0,0,0,67.56,27.73Z"/><path class="cls-1" d="M66.44,12.77a1.85,1.85,0,0,0-.8,1.61,1.94,1.94,0,0,0,.35,1.2,3.24,3.24,0,0,0,1.25.88,25.29,25.29,0,0,0,2.69,1l.24.08L73.38,14a7.52,7.52,0,0,0-4.76-1.77A3.69,3.69,0,0,0,66.44,12.77Z"/><path class="cls-2" d="M84,24a2.19,2.19,0,0,0-.84,1.89,2.26,2.26,0,0,0,.52,1.59,1.94,1.94,0,0,0,1.46.56,3,3,0,0,0,2.69-1.64v-3H86.6A4.51,4.51,0,0,0,84,24Z"/><path class="cls-1" d="M31.91,16.91a2.39,2.39,0,0,0-2,1A6.19,6.19,0,0,0,29,21h5.67v-.22C34.62,18.21,33.71,16.91,31.91,16.91Z"/><path class="cls-2" d="M186.21,16.91a2.39,2.39,0,0,0-2,1A6.19,6.19,0,0,0,183.3,21H189v-.22C188.92,18.21,188,16.91,186.21,16.91Z"/><path d="M18.62,11.26a13.71,13.71,0,0,0-8.37-2.35H4.07V31.09h6.66a12.22,12.22,0,0,0,8-2.51c2.05-1.68,3.07-4.57,3.07-8.69S20.72,12.83,18.62,11.26ZM15,25.66a4.83,4.83,0,0,1-3.94,1.62H9.32V12.72H11a6.19,6.19,0,0,1,2.84.59,4.16,4.16,0,0,1,1.83,2.16,11.56,11.56,0,0,1,.67,4.42C16.33,22.66,15.88,24.59,15,25.66Z"/><polygon points="36.17 8.14 34.19 4.37 27.21 8.59 28.62 11.18 36.17 8.14"/><path d="M31.79,13.55a7.32,7.32,0,0,0-7,4.47,11.16,11.16,0,0,0-.93,4.65,9.31,9.31,0,0,0,2.21,6.53,8.11,8.11,0,0,0,6.33,2.43A10.39,10.39,0,0,0,39,29.26l-2.08-2.81a10.09,10.09,0,0,1-2.08,1.13,5.4,5.4,0,0,1-2,.37,3.84,3.84,0,0,1-2.65-.86,4.71,4.71,0,0,1-1.22-3H39.53a15.67,15.67,0,0,0,.1-1.82,9.23,9.23,0,0,0-2.08-6.4A7.36,7.36,0,0,0,31.79,13.55ZM34.67,21H29a6.19,6.19,0,0,1,.88-3.17,2.39,2.39,0,0,1,2-1c1.8,0,2.71,1.3,2.76,3.91Z"/><path d="M47,31.63a8,8,0,0,0,3.08-.57l-1-3.59a2,2,0,0,1-.83.16c-.57,0-.86-.35-.86-1.05V6.8l-5.06.54V26.77a4.94,4.94,0,0,0,1.23,3.6A4.61,4.61,0,0,0,47,31.63Z"/><path d="M54.47,10.9a3,3,0,0,0,2.16-.82A2.72,2.72,0,0,0,57.48,8,2.74,2.74,0,0,0,56.63,6a3,3,0,0,0-2.16-.81A2.94,2.94,0,0,0,52.33,6,2.76,2.76,0,0,0,51.5,8a2.74,2.74,0,0,0,.83,2.06A2.94,2.94,0,0,0,54.47,10.9Z"/><rect x="51.98" y="14.1" width="5.06" height="16.99"/><path class="cls-2" d="M70.17,17.54l-3.57,4,.42.14a16,16,0,0,1,2.49,1,3,3,0,0,1,1.22,1A2.58,2.58,0,0,1,71.08,25a2.37,2.37,0,0,1-.94,2,4.16,4.16,0,0,1-2.58.72,7.76,7.76,0,0,1-3-.55,9.39,9.39,0,0,1-2-1.16L59.89,29a12,12,0,0,0,3,1.8,12.71,12.71,0,0,0,4.82.86,11.46,11.46,0,0,0,4.7-.88,6.83,6.83,0,0,0,3-2.46,6.43,6.43,0,0,0,1.06-3.67,6,6,0,0,0-1.6-4.49A12.21,12.21,0,0,0,70.17,17.54Z"/><path class="cls-3" d="M69.93,17.46a25.29,25.29,0,0,1-2.69-1A3.24,3.24,0,0,1,66,15.58a1.94,1.94,0,0,1-.35-1.2,1.85,1.85,0,0,1,.8-1.61,3.69,3.69,0,0,1,2.18-.56A7.52,7.52,0,0,1,73.38,14l2.51-2.79a10.15,10.15,0,0,0-3.32-2.12,12.12,12.12,0,0,0-4.34-.7,10.45,10.45,0,0,0-4.13.78,6.52,6.52,0,0,0-2.84,2.24,5.68,5.68,0,0,0-1,3.38,5.78,5.78,0,0,0,1.55,4.13,11.63,11.63,0,0,0,4.82,2.61l3.57-4Z"/><path class="cls-3" d="M62,25.55,59.3,28.46c.19.18.39.35.59.51L62.55,26C62.35,25.87,62.15,25.72,62,25.55Z"/><path d="M73.48,14.06l2.43-2.84,0,0L73.38,14Z"/><path class="cls-2" d="M93.08,27.57a2.83,2.83,0,0,1-.27-1.41V19.57a5.71,5.71,0,0,0-1.7-4.51q-1.69-1.51-5.34-1.51a17,17,0,0,0-3.12.32,18.6,18.6,0,0,0-3.28.93l1.15,3.33A20.08,20.08,0,0,1,83,17.47a10.41,10.41,0,0,1,2-.24,3.47,3.47,0,0,1,2.24.56,2.71,2.71,0,0,1,.64,2.07v.73H86.12a10.09,10.09,0,0,0-5.92,1.47,4.91,4.91,0,0,0-2,4.26,5.11,5.11,0,0,0,1.51,3.84,5.5,5.5,0,0,0,4,1.47,5.68,5.68,0,0,0,5.12-2.56,3.71,3.71,0,0,0,1.53,1.78,6.42,6.42,0,0,0,2.56.69L94,28.24A1.62,1.62,0,0,1,93.08,27.57Z"/><path class="cls-2" d="M106.79,13.55a6.26,6.26,0,0,0-2.83.64,7.71,7.71,0,0,0-2.35,1.92l-.35-2H96.84v17h5.06V19.47c.93-1.47,1.92-2.21,2.94-2.21a1.46,1.46,0,0,1,1.2.5,2.9,2.9,0,0,1,.4,1.78V31.09h5.06V18.67a5.33,5.33,0,0,0-1.25-3.77A4.48,4.48,0,0,0,106.79,13.55Z"/><path class="cls-2" d="M124.23,17.46a26.17,26.17,0,0,1-2.69-1,3.19,3.19,0,0,1-1.24-.88,1.88,1.88,0,0,1-.36-1.2,1.85,1.85,0,0,1,.8-1.61,3.71,3.71,0,0,1,2.18-.56,7.56,7.56,0,0,1,4.86,1.85l2.44-2.84a10,10,0,0,0-3.35-2.15,12.06,12.06,0,0,0-4.33-.7,10.38,10.38,0,0,0-4.13.78,6.49,6.49,0,0,0-2.85,2.24,5.75,5.75,0,0,0-1,3.38,5.74,5.74,0,0,0,1.55,4.13,12.16,12.16,0,0,0,5.23,2.75,16.15,16.15,0,0,1,2.5,1,3,3,0,0,1,1.21,1,2.5,2.5,0,0,1,.35,1.39,2.37,2.37,0,0,1-.94,2,4.16,4.16,0,0,1-2.58.72,7.79,7.79,0,0,1-3-.55,9.6,9.6,0,0,1-2.64-1.63l-2.65,2.91a11.48,11.48,0,0,0,3.6,2.31,12.62,12.62,0,0,0,4.81.86,11.51,11.51,0,0,0,4.71-.88,6.94,6.94,0,0,0,3-2.46,6.5,6.5,0,0,0,1-3.67,6,6,0,0,0-1.6-4.49A12.32,12.32,0,0,0,124.23,17.46Z"/><path class="cls-2" d="M142.89,25.9a3.27,3.27,0,0,1-2.75,2,1.51,1.51,0,0,1-1.24-.5,2.89,2.89,0,0,1-.4-1.74V14.1h-5.05V26.29a5.86,5.86,0,0,0,1.2,3.93,4.38,4.38,0,0,0,3.53,1.41,5.92,5.92,0,0,0,5.16-2.69l.22,2.15h4.38v-17h-5.05Z"/><path class="cls-2" d="M159.69,17.42a5.34,5.34,0,0,1,3.23,1.22l2.18-3a9.09,9.09,0,0,0-2.66-1.57,9.29,9.29,0,0,0-3.17-.51,8.15,8.15,0,0,0-4.38,1.17A7.72,7.72,0,0,0,152,18a10.53,10.53,0,0,0-1,4.77,10,10,0,0,0,1,4.68,7.41,7.41,0,0,0,2.91,3.11,8.78,8.78,0,0,0,4.48,1.1,9,9,0,0,0,5.73-2l-2.21-3.14a10.35,10.35,0,0,1-1.7.88,4.35,4.35,0,0,1-1.57.27,2.93,2.93,0,0,1-2.49-1.12,6.32,6.32,0,0,1-.87-3.81,7.21,7.21,0,0,1,.87-4A2.91,2.91,0,0,1,159.69,17.42Z"/><path class="cls-2" d="M176.45,13.62a3.94,3.94,0,0,0-2.64,1,6.13,6.13,0,0,0-1.74,2.77l-.42-3.29h-4.41v17h5V22.67a8.05,8.05,0,0,1,1.24-3.12,2.68,2.68,0,0,1,2.28-1,7.15,7.15,0,0,1,1.54.23l.8-4.9A6,6,0,0,0,176.45,13.62Z"/><path class="cls-2" d="M193.93,22.26a9.23,9.23,0,0,0-2.08-6.4,7.36,7.36,0,0,0-5.76-2.31,7.32,7.32,0,0,0-7,4.47,11.16,11.16,0,0,0-.93,4.65,9.36,9.36,0,0,0,2.21,6.53,8.11,8.11,0,0,0,6.33,2.43,10.39,10.39,0,0,0,6.63-2.37l-2.08-2.81a10.09,10.09,0,0,1-2.08,1.13,5.4,5.4,0,0,1-2,.37,3.84,3.84,0,0,1-2.65-.86,4.71,4.71,0,0,1-1.22-3h10.53A15.67,15.67,0,0,0,193.93,22.26Z"/></svg>